Machine Gun Preacher 2011 R5 AC3-5.1 StoneBoyTony


The story of Sam Childers, a former drug-dealing biker tough guy who found God and became a crusader for hundreds of Sudanese children who've been forced to become soldiers. 


Genres: Action | Biography | Crime 

Director: Marc Forster

Writer: Jason Keller (screenplay)

Stars: Gerard Butler, Michelle Monaghan and Michael 



General

Unique ID                        : 0
Complete name                    : Machine Gun Preacher 2011 R5 AC3-5.1 StoneBoyTony.mkv
Format                           : Matroska
Format version                   : Version 2
File size                        : 1.55 GiB
Duration                         : 2h 3mn
Overall bit rate                 : 1 792 Kbps
Movie name                       : Machine Gun Preacher 2011 R5 AC3-5.1 StoneBoyTony
Encoded date                     : UTC 2012-02-27 07:58:09
Writing application              : mkvmerge v5.3.0 ('I could have danced') built on Feb  9 2012 10:38:07
Writing library                  : libebml v1.2.3 + libmatroska v1.3.0

Video

ID                               : 1
Format                           : AVC
Format/Info                      : Advanced Video Codec
Format profile                   : High@L4.1
Format settings, CABAC           : Yes
Format settings, ReFrames        : 4 frames
Muxing mode                      : Header stripping
Codec ID                         : V_MPEG4/ISO/AVC
Duration                         : 2h 3mn
Bit rate                         : 1 309 Kbps
Width                            : 854 pixels
Height                           : 352 pixels
Display aspect ratio             : 2.40:1
Frame rate                       : 25.000 fps
Color space                      : YUV
Chroma subsampling               : 4:2:0
Bit depth                        : 8 bits
Scan type                        : Progressive
Bits/(Pixel*Frame)               : 0.174
Stream size                      : 1.13 GiB (73%)
Title                            : Encoded by StoneBoyTony
Writing library                  : x264 core 120 r2164 da19765
Language                         : English
Default                          : No
Forced                           : No

Audio

ID                               : 2
Format                           : AC-3
Format/Info                      : Audio Coding 3
Mode extension                   : CM (complete main)
Muxing mode                      : Header stripping
Codec ID                         : A_AC3
Duration                         : 2h 3mn
Bit rate mode                    : Constant
Bit rate                         : 448 Kbps
Channel(s)                       : 6 channels
Channel positions                : Front: L C R, Side: L R, LFE
Sampling rate                    : 48.0 KHz
Bit depth                        : 16 bits
Compression mode                 : Lossy
Stream size                      : 396 MiB (25%)
Title                            : Encoded by StoneBoyTony
Language                         : English
Default                          : Yes
Forced                           : No



Screenshots

 
http://img221.imageshack.us/img221/723/machinegunpreacher2011r.png 
http://img33.imageshack.us/img33/723/machinegunpreacher2011r.png 
http://img42.imageshack.us/img42/723/machinegunpreacher2011r.png 
http://img836.imageshack.us/img836/723/machinegunpreacher2011r.png 
http://img208.imageshack.us/img208/723/machinegunpreacher2011r.png 
http://img692.imageshack.us/img692/723/machinegunpreacher2011r.png 
http://img822.imageshack.us/img822/723/machinegunpreacher2011r.png 
http://img252.imageshack.us/img252/723/machinegunpreacher2011r.png 
http://img191.imageshack.us/img191/723/machinegunpreacher2011r.png 
http://img406.imageshack.us/img406/723/machinegunpreacher2011r.png 
http://img189.imageshack.us/img189/723/machinegunpreacher2011r.png 
http://img10.imageshack.us/img10/723/machinegunpreacher2011r.png



BiG THANKS to T00NG0D, IMAGINE, ELEKTRI4KA, ILLUMINATI, DTRG, P76, ETRG, NOGRP, INFERNO, INSPiRAL, SiC, PA, YeFsTe, MrRep and everyone in the struggle

Sample is Included

Have problems to play the file on your PC use VLC Media Player it's free:
 
http://www.videolan.org/vlc/

Want to convert in DVD use ConvertXtoDVD
 
http://www.vso-software.fr/products/convert_x_to_dvd/

Want to convert in any file (xbox,psp,PS3 etc) use Aiseesoft Total Media Converter:
 
http://www.aiseesoft.com/total-media-converter.html

I did my best the rest is yours :D


Want to visit my other uploads?
  
http://www.kat.ph/user/StoneBoyTony/uploads/  
http://thepiratebay.org/user/StoneBoyTony/  
http://www. demonoid. me/files/?uid=3160987&seeded=2/

Enjoy and don't forget to SeeD	